<svg width="261" height="103" viewBox="0 0 261 103" fill="none" xmlns="http://www.w3.org/2000/svg">
    <g clip-path="url(#clip0)">
        <path d="M70.877 42.7305V69.5273H64.6426V42.7305H70.877ZM67.7363 29.3555C68.8509 29.3555 69.752 29.7096 70.4395 30.418C71.1374 31.1263 71.4863 32.0378 71.4863 33.1523C71.4863 34.2357 71.1374 35.1315 70.4395 35.8398C69.752 36.5482 68.8509 36.9023 67.7363 36.9023C66.6217 36.9023 65.7155 36.5482 65.0176 35.8398C64.3301 35.1315 63.9863 34.2357 63.9863 33.1523C63.9863 32.0378 64.3301 31.1263 65.0176 30.418C65.7155 29.7096 66.6217 29.3555 67.7363 29.3555ZM92.5075 69.5273L86.32 55.3867H85.7106H83.2263V69.5273H76.8044V34.5273H85.0544C93.4919 34.5273 97.7106 37.9544 97.7106 44.8086C97.7106 46.9336 97.2367 48.819 96.2888 50.4648C95.3513 52.1003 93.9346 53.3398 92.0388 54.1836L99.445 69.5273H92.5075ZM85.3513 50.7305C87.3513 50.7305 88.7992 50.2617 89.695 49.3242C90.5908 48.3763 91.0388 46.8711 91.0388 44.8086C91.0388 42.8815 90.57 41.4701 89.6325 40.5742C88.7054 39.6784 87.1794 39.2305 85.0544 39.2305H83.2263V50.7305H85.3513ZM120.867 55.4961C120.867 55.7982 120.815 56.6576 120.711 58.0742H106.883C107.018 60.8451 107.497 62.7826 108.32 63.8867C109.154 64.9805 110.331 65.5273 111.852 65.5273C112.893 65.5273 113.836 65.3503 114.68 64.9961C115.534 64.6419 116.451 64.0742 117.43 63.293L120.008 66.8398C117.643 69.1419 114.805 70.293 111.492 70.293C107.982 70.293 105.289 69.0794 103.414 66.6523C101.539 64.2148 100.602 60.7826 100.602 56.3555C100.602 51.9284 101.497 48.4336 103.289 45.8711C105.081 43.3086 107.612 42.0273 110.883 42.0273C114.029 42.0273 116.477 43.168 118.227 45.4492C119.987 47.7201 120.867 51.069 120.867 55.4961ZM114.789 53.668C114.789 51.1367 114.482 49.2878 113.867 48.1211C113.263 46.9544 112.289 46.3711 110.945 46.3711C109.695 46.3711 108.737 46.9388 108.07 48.0742C107.414 49.2096 107.018 51.194 106.883 54.0273H114.789V53.668ZM141.947 63.043C141.947 63.918 142.062 64.569 142.291 64.9961C142.53 65.4128 142.921 65.7565 143.463 66.0273L142.197 70.1836C140.812 70.0169 139.702 69.6471 138.869 69.0742C138.046 68.5013 137.431 67.6211 137.025 66.4336C135.473 69.0065 133.296 70.293 130.494 70.293C128.265 70.293 126.489 69.543 125.166 68.043C123.853 66.5326 123.197 64.5273 123.197 62.0273C123.197 59.1211 124.098 56.9128 125.9 55.4023C127.713 53.8815 130.343 53.1211 133.791 53.1211H135.869V51.2461C135.869 49.5586 135.572 48.3711 134.978 47.6836C134.385 46.9857 133.431 46.6367 132.119 46.6367C130.525 46.6367 128.546 47.0742 126.181 47.9492L124.775 43.9023C126.119 43.2878 127.515 42.8242 128.963 42.5117C130.421 42.1888 131.806 42.0273 133.119 42.0273C139.004 42.0273 141.947 44.9961 141.947 50.9336V63.043ZM132.166 65.7773C133.791 65.7773 135.025 64.6628 135.869 62.4336V56.8086H134.4C132.671 56.8086 131.411 57.1992 130.619 57.9805C129.827 58.7513 129.431 59.9492 129.431 61.5742C129.431 62.9596 129.666 64.0065 130.135 64.7148C130.614 65.4232 131.291 65.7773 132.166 65.7773ZM167.164 31.9961V69.5273H161.648L161.336 66.4336C159.752 69.0065 157.711 70.293 155.211 70.293C152.44 70.293 150.32 69.0534 148.851 66.5742C147.383 64.0846 146.648 60.6107 146.648 56.1523C146.648 53.319 147.028 50.8294 147.789 48.6836C148.549 46.5378 149.601 44.8919 150.945 43.7461C152.299 42.6003 153.856 42.0273 155.617 42.0273C157.784 42.0273 159.554 42.918 160.929 44.6992V31.3398L167.164 31.9961ZM156.992 65.5742C157.763 65.5742 158.461 65.3034 159.086 64.7617C159.711 64.2201 160.325 63.444 160.929 62.4336V49.418C159.856 47.5951 158.627 46.6836 157.242 46.6836C154.502 46.6836 153.133 49.8242 153.133 56.1055C153.133 59.5117 153.471 61.944 154.148 63.4023C154.825 64.8503 155.773 65.5742 156.992 65.5742ZM188.805 69.5273L182.617 55.3867H182.008H179.524V69.5273H173.102V34.5273H181.352C189.789 34.5273 194.008 37.9544 194.008 44.8086C194.008 46.9336 193.534 48.819 192.586 50.4648C191.649 52.1003 190.232 53.3398 188.336 54.1836L195.742 69.5273H188.805V69.5273ZM181.649 50.7305C183.649 50.7305 185.097 50.2617 185.992 49.3242C186.888 48.3763 187.336 46.8711 187.336 44.8086C187.336 42.8815 186.867 41.4701 185.93 40.5742C185.003 39.6784 183.477 39.2305 181.352 39.2305H179.524V50.7305H181.649ZM210.331 55.1992L217.565 69.5273H210.987L206.534 58.7305L202.175 69.5273H195.737L202.987 55.3867L196.44 42.7305H202.925L206.628 52.0586L210.222 42.7305H216.503L210.331 55.1992Z" fill="black" />
        <path d="M222.84 62.3867C223.986 62.3867 224.913 62.7773 225.621 63.5586C226.329 64.3294 226.684 65.2565 226.684 66.3398C226.684 67.4127 226.329 68.3398 225.621 69.1211C224.913 69.9023 223.986 70.293 222.84 70.293C221.725 70.293 220.803 69.9023 220.074 69.1211C219.355 68.3398 218.996 67.4127 218.996 66.3398C218.996 65.2565 219.355 64.3294 220.074 63.5586C220.803 62.7773 221.725 62.3867 222.84 62.3867ZM248.325 63.043C248.325 63.918 248.439 64.569 248.668 64.9961C248.908 65.4127 249.299 65.7565 249.84 66.0273L248.575 70.1836C247.189 70.0169 246.08 69.6471 245.247 69.0742C244.424 68.5013 243.809 67.6211 243.403 66.4336C241.851 69.0065 239.674 70.293 236.872 70.293C234.642 70.293 232.866 69.543 231.543 68.043C230.231 66.5325 229.575 64.5273 229.575 62.0273C229.575 59.1211 230.476 56.9127 232.278 55.4023C234.09 53.8815 236.721 53.1211 240.168 53.1211H242.247V51.2461C242.247 49.5586 241.95 48.3711 241.356 47.6836C240.762 46.9857 239.809 46.6367 238.497 46.6367C236.903 46.6367 234.924 47.0742 232.559 47.9492L231.153 43.9023C232.497 43.2877 233.892 42.8242 235.34 42.5117C236.799 42.1888 238.184 42.0273 239.497 42.0273C245.382 42.0273 248.325 44.9961 248.325 50.9336V63.043ZM238.543 65.7773C240.168 65.7773 241.403 64.6627 242.247 62.4336V56.8086H240.778C239.049 56.8086 237.788 57.1992 236.997 57.9805C236.205 58.7513 235.809 59.9492 235.809 61.5742C235.809 62.9596 236.043 64.0065 236.512 64.7148C236.991 65.4232 237.668 65.7773 238.543 65.7773ZM260.432 42.7305V69.5273H254.198V42.7305H260.432ZM257.291 29.3555C258.406 29.3555 259.307 29.7096 259.995 30.418C260.692 31.1263 261.041 32.0378 261.041 33.1523C261.041 34.2357 260.692 35.1315 259.995 35.8398C259.307 36.5482 258.406 36.9023 257.291 36.9023C256.177 36.9023 255.271 36.5482 254.573 35.8398C253.885 35.1315 253.541 34.2357 253.541 33.1523C253.541 32.0378 253.885 31.1263 254.573 30.418C255.271 29.7096 256.177 29.3555 257.291 29.3555Z" fill="#434343" />
        <path fill-rule="evenodd" clip-rule="evenodd" d="M16.873 27.1914H45.4085V54.341H16.873V27.1914Z" fill="#CFE2F3" />
        <path fill-rule="evenodd" clip-rule="evenodd" d="M22.1426 48.4336H50.678V75.5832H22.1426V48.4336Z" fill="#F3F3F3" />
        <path fill-rule="evenodd" clip-rule="evenodd" d="M0 38.8203H28.5354V65.9699H0V38.8203Z" fill="#C9DAF8" />
    </g>
    <defs>
        <clipPath id="clip0">
            <rect width="261" height="103" fill="white" />
        </clipPath>
    </defs>
</svg>